<?xml version="1.0" encoding="UTF-8"?>
<svg version="1.1" viewBox="0 0 2048 352" width="1301" height="224" xmlns="http://www.w3.org/2000/svg">
<path transform="translate(138,78)" d="m0 0 14 1 13 5 10 7 9 10 10 17 15 26 10 18 14 24 10 18 10 17 3-3 11-18 16-26 12-20 16-26 13-21 8-11 4-5 10-7 9-4 12-2 14 1 14 5 8 6 5 4 7 10 5 11 4 14 2 14 3 78v29l4-4 11-18 11-17 12-19 11-18 14-22 14-23 14-22 8-11 10-9 13-6 8-2h20l12 4 11 6 9 8 7 10 14 23 13 21 51 84 5 5 7 1 3-3 1-49 3-12 6-7 10-4 181-1 9-2 6-5 2-5v-12l-3-6-5-4-5-2-11-1h-190l-9-1-1-1-1-9v-13l1-20 1-1h158l63 1 15 3 16 8 8 7 8 9 6 13 3 15v17l-3 14-4 10-8 11-8 7-16 8-20 5 10 9 15 15 11 9 6 4 3 1h10l7-4 7-9 12-20 36-57 14-22 16-26 8-11 6-7 10-7 8-4 11-3h19l13 4 11 6 9 8 10 14 17 29 8 13 17 28 13 21 12 20 11 18 8 10 9 10 10 8 18 12v1h-72l-10-3-5-4-14-22-9-1h-121l1-5 9-14 13-20 3-4h77l-6-12-17-28-16-26-7-11h-4l-7 10-11 18-14 22-13 21-11 17-10 16-13 20-12 16-11 10-15 8-15 4-7 1h-14l-17-3-16-7-13-10-55-55-9-6-92-1-1 38-4 12-6 8-7 6-11 5-17 3h-27l-16-3-14-7-9-8-9-14-9-1h-121l1-5 12-19 11-17 2-2h76l-5-10-32-52-9-15-4 1-9 14-12 20-14 22-28 46-11 17-12 19-6 8-6 3h-93l-1-1-4-115-1-22-1-6-10 15-16 26-13 21-16 26-15 24-9 14-8 10-11 7-10 3h-16l-11-4-10-7-8-10-14-25-14-24-30-52-13-22v-2l-3 3-16 36-11 25-19 43-14 32-4 4-3 1h-54l3-9 13-30 16-35 19-42 27-60 7-10 5-5 9-7 11-4z" fill="#1E2024"/>
<path transform="translate(1558,83)" d="m0 0h153l22 1 18 3 15 5 16 8 12 8 14 11 16 13 10 8 11 9 13 10 2-4 12-12 11-9 13-12 11-9 13-12 8-7 11-9 2-1h73l-6 7-15 13-28 24-13 11-15 13-14 12-11 9-15 13h-4l-3-1 9 8 14 11 22 18 16 13 14 11 17 14 14 11 11 9v1h-73l-9-3-9-7-13-11-10-8-22-18-16-13-5 3-11 9-15 12-19 14-16 9-13 6-17 5-12 2-17 1h-375l-18-2-18-6-17-9-12-11-7-7-7-11-6-12-5-19-1-7v-114h55l1 118 3 10 6 10 7 7 14 7 9 2 15 1h73l28-1 4-1-9-17-5-15-2-12v-20l4-20 6-15 9-15 9-11 11-10 13-8 11-5 14-4zm27 44-25 1-13 4-10 6-9 9-6 11-4 13-1 16 2 13 5 13 7 9 8 7 12 6 11 3 135 1h36l15-2 15-6 12-8 16-13 11-9 12-10 2-1-1-3-11-9-14-12-14-11-16-13-11-7-12-5-8-2-114-1z" fill="#1E2024"/>
<path transform="translate(1544,161)" d="m0 0h161l1 2v26l-1 13h-162v-40z" fill="#1E2024"/>
</svg>
